<svg width="50" height="50" viewBox="0 0 50 50" fill="none" xmlns="http://www.w3.org/2000/svg">
<circle cx="25" cy="25" r="25" fill="#E5F1FF"/>
<path d="M27.5003 33.9584H22.5003C17.9753 33.9584 16.042 32.0251 16.042 27.5001V22.5001C16.042 17.9751 17.9753 16.0417 22.5003 16.0417H24.167C24.5087 16.0417 24.792 16.3251 24.792 16.6667C24.792 17.0084 24.5087 17.2917 24.167 17.2917H22.5003C18.6587 17.2917 17.292 18.6584 17.292 22.5001V27.5001C17.292 31.3417 18.6587 32.7084 22.5003 32.7084H27.5003C31.342 32.7084 32.7087 31.3417 32.7087 27.5001V25.8334C32.7087 25.4917 32.992 25.2084 33.3337 25.2084C33.6753 25.2084 33.9587 25.4917 33.9587 25.8334V27.5001C33.9587 32.0251 32.0253 33.9584 27.5003 33.9584Z" fill="url(#paint0_linear_1_1104)"/>
<path d="M22.0831 29.7417C21.5748 29.7417 21.1081 29.5584 20.7664 29.225C20.3581 28.8167 20.1831 28.225 20.2748 27.6L20.6331 25.0917C20.6998 24.6084 21.0164 23.9834 21.3581 23.6417L27.9248 17.075C29.5831 15.4167 31.2664 15.4167 32.9248 17.075C33.8331 17.9834 34.2414 18.9084 34.1581 19.8334C34.0831 20.5834 33.6831 21.3167 32.9248 22.0667L26.3581 28.6334C26.0164 28.975 25.3914 29.2917 24.9081 29.3584L22.3998 29.7167C22.2914 29.7417 22.1831 29.7417 22.0831 29.7417ZM28.8081 17.9584L22.2414 24.525C22.0831 24.6834 21.8998 25.05 21.8664 25.2667L21.5081 27.775C21.4748 28.0167 21.5248 28.2167 21.6498 28.3417C21.7748 28.4667 21.9748 28.5167 22.2164 28.4834L24.7248 28.125C24.9414 28.0917 25.3164 27.9084 25.4664 27.75L32.0331 21.1834C32.5748 20.6417 32.8581 20.1584 32.8998 19.7084C32.9498 19.1667 32.6664 18.5917 32.0331 17.95C30.6998 16.6167 29.7831 16.9917 28.8081 17.9584Z" fill="url(#paint1_linear_1_1104)"/>
<path d="M31.5413 23.1917C31.483 23.1917 31.4246 23.1834 31.3746 23.1667C29.183 22.5501 27.4413 20.8084 26.8246 18.6167C26.733 18.2834 26.9246 17.9417 27.258 17.8417C27.5913 17.7501 27.933 17.9417 28.0246 18.2751C28.5246 20.0501 29.933 21.4584 31.708 21.9584C32.0413 22.0501 32.233 22.4001 32.1413 22.7334C32.0663 23.0167 31.8163 23.1917 31.5413 23.1917Z" fill="url(#paint2_linear_1_1104)"/>
<defs>
<linearGradient id="paint0_linear_1_1104" x1="14.1051" y1="22.014" x2="36.025" y2="22.6929" gradientUnits="userSpaceOnUse">
<stop stop-color="#0076FE"/>
<stop offset="1" stop-color="#00D372"/>
</linearGradient>
<linearGradient id="paint1_linear_1_1104" x1="18.7464" y1="20.4681" x2="35.7738" y2="20.9958" gradientUnits="userSpaceOnUse">
<stop stop-color="#0076FE"/>
<stop offset="1" stop-color="#00D372"/>
</linearGradient>
<linearGradient id="paint2_linear_1_1104" x1="26.222" y1="19.6098" x2="32.7827" y2="19.8126" gradientUnits="userSpaceOnUse">
<stop stop-color="#0076FE"/>
<stop offset="1" stop-color="#00D372"/>
</linearGradient>
</defs>
</svg>
