<svg width="78" height="78" viewBox="0 0 78 78" fill="none" xmlns="http://www.w3.org/2000/svg">
<rect width="78" height="78" rx="8" fill="#0076FE" fill-opacity="0.1"/>
<path d="M50.0239 29.5125C49.5639 29.4358 49.0847 29.4167 48.5864 29.4167H29.4197C28.883 29.4167 28.3655 29.455 27.8672 29.5317C28.1355 28.995 28.5189 28.4967 28.9789 28.0367L35.208 21.7884C37.8339 19.1817 42.0889 19.1817 44.7147 21.7884L48.0689 25.1808C49.2955 26.3883 49.9472 27.9216 50.0239 29.5125Z" stroke="url(#paint0_linear_1_732)" stroke-width="2" stroke-linecap="round" stroke-linejoin="round"/>
<path d="M33.2503 52.4167C33.2503 53.8542 32.8478 55.215 32.1387 56.365C30.8162 58.5883 28.382 60.0833 25.5837 60.0833C22.7853 60.0833 20.3512 58.5883 19.0287 56.365C18.3195 55.215 17.917 53.8542 17.917 52.4167C17.917 48.1808 21.3478 44.75 25.5837 44.75C29.8195 44.75 33.2503 48.1808 33.2503 52.4167Z" stroke="url(#paint1_linear_1_732)" stroke-width="1.5" stroke-miterlimit="10" stroke-linecap="round" stroke-linejoin="round"/>
<path d="M28.4431 52.3773H22.7314" stroke="url(#paint2_linear_1_732)" stroke-width="2" stroke-miterlimit="10" stroke-linecap="round" stroke-linejoin="round"/>
<path d="M25.584 49.5791V55.3099" stroke="url(#paint3_linear_1_732)" stroke-width="2" stroke-miterlimit="10" stroke-linecap="round" stroke-linejoin="round"/>
<path d="M58.1663 39V48.5833C58.1663 54.3333 54.333 58.1666 48.583 58.1666H30.6238C31.218 57.6683 31.7355 57.055 32.138 56.365C32.8472 55.215 33.2497 53.8541 33.2497 52.4166C33.2497 48.1808 29.8188 44.75 25.583 44.75C23.283 44.75 21.2322 45.7658 19.833 47.3566V39C19.833 33.7866 22.9763 30.145 27.8638 29.5316C28.3622 29.455 28.8797 29.4166 29.4163 29.4166H48.583C49.0813 29.4166 49.5605 29.4358 50.0205 29.5124C54.9655 30.0874 58.1663 33.7483 58.1663 39Z" stroke="url(#paint4_linear_1_732)" stroke-width="2" stroke-linecap="round" stroke-linejoin="round"/>
<path d="M58.1663 39.9584H52.4163C50.308 39.9584 48.583 41.6834 48.583 43.7917C48.583 45.9 50.308 47.625 52.4163 47.625H58.1663" stroke="url(#paint5_linear_1_732)" stroke-width="2" stroke-linecap="round" stroke-linejoin="round"/>
<defs>
<linearGradient id="paint0_linear_1_732" x1="25.4719" y1="23.0661" x2="52.47" y2="24.9766" gradientUnits="userSpaceOnUse">
<stop stop-color="#0076FE"/>
<stop offset="1" stop-color="#00D372"/>
</linearGradient>
<linearGradient id="paint1_linear_1_732" x1="16.2593" y1="49.8611" x2="35.0187" y2="50.4422" gradientUnits="userSpaceOnUse">
<stop stop-color="#0076FE"/>
<stop offset="1" stop-color="#00D372"/>
</linearGradient>
<linearGradient id="paint2_linear_1_732" x1="22.114" y1="52.7107" x2="28.8963" y2="53.9105" gradientUnits="userSpaceOnUse">
<stop stop-color="#0076FE"/>
<stop offset="1" stop-color="#00D372"/>
</linearGradient>
<linearGradient id="paint3_linear_1_732" x1="25.4759" y1="51.4894" x2="26.7005" y2="51.496" gradientUnits="userSpaceOnUse">
<stop stop-color="#0076FE"/>
<stop offset="1" stop-color="#00D372"/>
</linearGradient>
<linearGradient id="paint4_linear_1_732" x1="15.6889" y1="39" x2="62.5523" y2="40.9353" gradientUnits="userSpaceOnUse">
<stop stop-color="#0076FE"/>
<stop offset="1" stop-color="#00D372"/>
</linearGradient>
<linearGradient id="paint5_linear_1_732" x1="47.547" y1="42.5139" x2="59.2653" y2="42.9676" gradientUnits="userSpaceOnUse">
<stop stop-color="#0076FE"/>
<stop offset="1" stop-color="#00D372"/>
</linearGradient>
</defs>
</svg>
